<svg id="Group_2082" data-name="Group 2082" xmlns="http://www.w3.org/2000/svg" width="36.207" height="40.3" viewBox="0 0 36.207 40.3">
  <path id="Path_82" data-name="Path 82" d="M327.38,386.605a.787.787,0,1,0,.787.787.787.787,0,0,0-.787-.787Zm0,0" transform="translate(-305.341 -380.072)" fill="#aaa"/>
  <path id="Path_83" data-name="Path 83" d="M252.38,386.605a.787.787,0,1,0,.787.787.787.787,0,0,0-.787-.787Zm0,0" transform="translate(-238.212 -380.072)" fill="#aaa"/>
  <path id="Path_84" data-name="Path 84" d="M159.287,347.88A6.294,6.294,0,0,0,160.3,344.5a5.466,5.466,0,0,0-1.994-4.229,5.323,5.323,0,0,0,.42-2.068,5.867,5.867,0,0,0-3.182-5.189,4.717,4.717,0,0,0-3.583-5.148,5.671,5.671,0,0,0-5.042-3.517,5.531,5.531,0,0,0-4.723,2.835,5.532,5.532,0,0,0-4.723-2.835,5.67,5.67,0,0,0-5.042,3.517,4.717,4.717,0,0,0-3.583,5.148,5.867,5.867,0,0,0-3.182,5.189,5.323,5.323,0,0,0,.42,2.068,5.467,5.467,0,0,0-1.994,4.229,6.293,6.293,0,0,0,1.013,3.375,5.434,5.434,0,0,0,.632,7.055,5.713,5.713,0,0,0,5.439,6.571h.072a6.205,6.205,0,0,0,10.948-.274,6.205,6.205,0,0,0,10.948.274h.072a5.707,5.707,0,0,0,5.51-5.746,5.034,5.034,0,0,0-.071-.825,5.434,5.434,0,0,0,.632-7.055Zm-17.877-11.61a3.127,3.127,0,0,0-1.574-.423.787.787,0,0,0,0,1.574A1.576,1.576,0,0,1,141.409,339v14.968a6.283,6.283,0,0,0-4.723-2.138.787.787,0,0,0,0,1.574,4.728,4.728,0,0,1,4.723,4.723,4.91,4.91,0,0,1-4.723,4.959,4.736,4.736,0,0,1-4.274-2.745.788.788,0,0,0-.8-.451c-.056.006-.111.014-.166.021-2.24.306-4.762-2.231-4.08-5.068a.786.786,0,0,0-.262-.789,3.919,3.919,0,0,1-1.435-3.011,3.872,3.872,0,0,1,.578-2.026,5.309,5.309,0,0,0,3.358,1.238.787.787,0,1,0,0-1.574,4.137,4.137,0,0,1-3.936-4.172,3.913,3.913,0,0,1,1.838-3.317.787.787,0,0,0,.263-1.053,3.875,3.875,0,0,1-.527-1.927,3.942,3.942,0,1,1,7.871,0,.787.787,0,0,0,1.574,0,5.707,5.707,0,0,0-5.51-5.746,5.07,5.07,0,0,0-.785.062c0-.021,0-.041,0-.062a3.149,3.149,0,0,1,5.375-2.227.787.787,0,1,0,1.113-1.113,4.691,4.691,0,0,0-2.611-1.327,3.977,3.977,0,0,1,3.207-1.867,4.165,4.165,0,0,1,3.936,4.172Zm13.381,13.981a5.311,5.311,0,0,0,3.358-1.238,3.871,3.871,0,0,1,.578,2.025,3.919,3.919,0,0,1-1.435,3.011.787.787,0,0,0-.262.789,3.9,3.9,0,0,1,.122.923c0,2.443-2.21,4.418-4.2,4.145-.055-.008-.111-.015-.166-.021a.786.786,0,0,0-.8.451,4.737,4.737,0,0,1-4.274,2.745,4.91,4.91,0,0,1-4.723-4.959,4.728,4.728,0,0,1,4.723-4.723.787.787,0,0,0,0-1.574,6.283,6.283,0,0,0-4.723,2.138V339a1.576,1.576,0,0,1,1.574-1.574.787.787,0,0,0,0-1.574,3.127,3.127,0,0,0-1.574.423V330.1a4.165,4.165,0,0,1,3.936-4.172,3.977,3.977,0,0,1,3.207,1.867,4.693,4.693,0,0,0-2.611,1.326.787.787,0,1,0,1.113,1.114A3.149,3.149,0,0,1,154,332.462c0,.021,0,.041,0,.062a5.071,5.071,0,0,0-.785-.062,5.707,5.707,0,0,0-5.51,5.746.787.787,0,0,0,1.574,0,3.942,3.942,0,1,1,7.871,0,3.876,3.876,0,0,1-.527,1.927.787.787,0,0,0,.264,1.053,3.913,3.913,0,0,1,1.838,3.317,4.137,4.137,0,0,1-3.936,4.172.787.787,0,1,0,0,1.574Zm0,0" transform="translate(-124.093 -324.355)" fill="#aaa"/>
  <path id="Path_85" data-name="Path 85" d="M193.338,452.637a.787.787,0,0,0-1.111-.062,3.942,3.942,0,0,1-6.559-2.933.787.787,0,1,0-1.574,0,5.518,5.518,0,0,0,4.612,5.436,2.365,2.365,0,0,1-2.251,1.648.787.787,0,0,0,0,1.574,3.942,3.942,0,0,0,3.865-3.2,5.5,5.5,0,0,0,2.957-1.356.787.787,0,0,0,.062-1.111Zm0,0" transform="translate(-177.796 -435.789)" fill="#aaa"/>
  <path id="Path_86" data-name="Path 86" d="M184.88,616.1a.787.787,0,0,0,0,1.574,4.165,4.165,0,0,1,3.936,4.172.787.787,0,0,0,1.574,0,5.707,5.707,0,0,0-5.51-5.746Zm0,0" transform="translate(-177.796 -585.486)" fill="#aaa"/>
  <path id="Path_87" data-name="Path 87" d="M198.157,556.1a7.07,7.07,0,0,0-6.163,3.59.787.787,0,0,0,1.37.776,5.5,5.5,0,0,1,4.794-2.792.787.787,0,1,0,0-1.574Zm0,0" transform="translate(-184.776 -531.783)" fill="#aaa"/>
  <path id="Path_88" data-name="Path 88" d="M326.177,456.726a2.365,2.365,0,0,1-2.251-1.648,5.518,5.518,0,0,0,4.612-5.436.787.787,0,0,0-1.574,0,3.935,3.935,0,0,1-6.559,2.933.787.787,0,0,0-1.049,1.173,5.5,5.5,0,0,0,2.957,1.356,3.942,3.942,0,0,0,3.865,3.2.787.787,0,0,0,0-1.574Zm0,0" transform="translate(-298.628 -435.789)" fill="#aaa"/>
  <path id="Path_89" data-name="Path 89" d="M354.6,616.1a5.707,5.707,0,0,0-5.51,5.746.787.787,0,0,0,1.574,0,4.165,4.165,0,0,1,3.936-4.172.787.787,0,0,0,0-1.574Zm0,0" transform="translate(-325.48 -585.486)" fill="#aaa"/>
  <path id="Path_90" data-name="Path 90" d="M341.043,559.695a7.069,7.069,0,0,0-6.163-3.59.787.787,0,1,0,0,1.574,5.5,5.5,0,0,1,4.794,2.792.787.787,0,0,0,1.37-.776Zm0,0" transform="translate(-312.054 -531.783)" fill="#aaa"/>
</svg>
