<svg id="Group_2080" data-name="Group 2080" xmlns="http://www.w3.org/2000/svg" width="50.148" height="35.261" viewBox="0 0 50.148 35.261">
  <path id="Path_72" data-name="Path 72" d="M246.171,422.177a.979.979,0,1,0,0,1.385.978.978,0,0,0,0-1.385Zm0,0" transform="translate(-226.282 -404.259)" fill="#AAAAAA"/>
  <path id="Path_73" data-name="Path 73" d="M277.438,436.89a2.938,2.938,0,1,0,2.938,2.938,2.942,2.942,0,0,0-2.938-2.938Zm0,3.918a.979.979,0,1,1,.979-.979.98.98,0,0,1-.979.979Zm0,0" transform="translate(-252.364 -417.301)" fill="#AAAAAA"/>
  <path id="Path_74" data-name="Path 74" d="M244.836,399.39a7.775,7.775,0,0,0-3.147.658.98.98,0,0,0,.788,1.794,5.878,5.878,0,1,1-3.518,5.384c0-.034,0-.066,0-.1A.979.979,0,0,0,237,407.08c0,.049,0,.1,0,.145a7.836,7.836,0,1,0,7.836-7.836Zm0,0" transform="translate(-219.762 -384.698)" fill="#AAAAAA"/>
  <path id="Path_75" data-name="Path 75" d="M290.479,286.89a.98.98,0,0,0-.979.979v5.877a.979.979,0,0,0,1.959,0v-5.877a.98.98,0,0,0-.979-.979Zm0,0" transform="translate(-265.405 -286.89)" fill="#AAAAAA"/>
  <path id="Path_76" data-name="Path 76" d="M174.419,312.923l-4.155-4.155a.979.979,0,1,0-1.385,1.385l4.155,4.155a.98.98,0,0,0,1.385-1.385Zm0,0" transform="translate(-160.287 -305.662)" fill="#AAAAAA"/>
  <g id="Group_42" data-name="Group 42" transform="translate(0 2.82)">
    <path id="Path_77" data-name="Path 77" d="M384.419,308.769a.979.979,0,0,0-1.385,0l-4.155,4.155a.98.98,0,0,0,1.385,1.385l4.155-4.155a.979.979,0,0,0,0-1.385Zm0,0" transform="translate(-342.862 -308.482)" fill="#AAAAAA"/>
    <path id="Path_78" data-name="Path 78" d="M154.9,374.79c-6.222-7.044-15.461-12.9-24.829-12.9s-18.608,5.858-24.829,12.9a.979.979,0,0,0,1.468,1.3q.313-.354.639-.705a27.544,27.544,0,0,0,45.442,0q.325.351.639.705a.979.979,0,0,0,1.468-1.3ZM130.074,385.4a25.539,25.539,0,0,1-21.321-11.457c3.489-3.419,11.552-10.09,21.321-10.09s17.832,6.671,21.321,10.09A25.539,25.539,0,0,1,130.074,385.4Zm0,0" transform="translate(-105 -354.915)" fill="#AAAAAA"/>
  </g>
</svg>
