<svg xmlns="http://www.w3.org/2000/svg" width="43.865" height="40.242" viewBox="0 0 43.865 40.242">
  <g id="Group_2084" data-name="Group 2084" transform="translate(0)">
    <g id="Group_40" data-name="Group 40" transform="translate(0 0)">
      <path id="Path_69" data-name="Path 69" d="M363.862,528.026a5.106,5.106,0,1,0,5.076,5.106,5.107,5.107,0,0,0-5.076-5.106Zm0,8.123a3.017,3.017,0,1,1,2.987-3.017,3.017,3.017,0,0,1-2.987,3.017Zm0,0" transform="translate(-331.087 -497.997)" fill="#aaa"/>
      <path id="Path_70" data-name="Path 70" d="M103.82,238.563h-1.926a7.968,7.968,0,0,0-7.888-6.911h-.338v-5.314a3.813,3.813,0,0,0-3.809-3.809H82.642v.238a12.087,12.087,0,0,0-11.4-1.311V215.88H85.959a1.722,1.722,0,0,1,1.72,1.721v2.157a1.044,1.044,0,1,0,2.089,0V217.6a3.813,3.813,0,0,0-3.809-3.809H71.245v-2.66a6.581,6.581,0,0,0-6.574-6.574H62.044a1.044,1.044,0,0,0,0,2.089h2.626a4.49,4.49,0,0,1,4.485,4.485v11.059a1.052,1.052,0,0,0,.049.316,12.1,12.1,0,1,0,18.583,11.234h6.218a5.874,5.874,0,0,1,5.867,5.867,1.044,1.044,0,0,0,1.044,1.044h2.9a1.044,1.044,0,1,0,0-2.089ZM91.579,226.338v5.315H87.787a12.06,12.06,0,0,0-3.054-7.035h5.126a1.723,1.723,0,0,1,1.72,1.72ZM75.73,242.71A10.014,10.014,0,1,1,85.744,232.7,10.014,10.014,0,0,1,75.73,242.71Zm0,0" transform="translate(-61 -204.558)" fill="#aaa"/>
    </g>
    <path id="Path_71" data-name="Path 71" d="M214.02,496.406a1.044,1.044,0,0,0-1.044,1.044,3.522,3.522,0,0,1-3.518,3.517,1.044,1.044,0,1,0,0,2.089,5.613,5.613,0,0,0,5.606-5.606,1.044,1.044,0,0,0-1.044-1.044Zm0,0" transform="translate(-194.729 -469.312)" fill="#aaa"/>
  </g>
</svg>
