<svg xmlns="http://www.w3.org/2000/svg" width="5.19" height="8.103" viewBox="0 0 5.19 8.103">
  <g id="Group_2001" data-name="Group 2001" transform="translate(0.5 0.533)">
    <g id="Group_489" data-name="Group 489" transform="translate(0 0)">
      <path id="Path_481" data-name="Path 481" d="M199.649,233.525l-3.582-3.193a.184.184,0,0,1,0-.283.243.243,0,0,1,.317,0l3.741,3.335a.185.185,0,0,1,0,.283L196.384,237a.24.24,0,0,1-.158.059.233.233,0,0,1-.158-.059.185.185,0,0,1,0-.283Zm0,0" transform="translate(-196.001 -229.991)" fill="#fff" stroke="#fff" stroke-width="1"/>
    </g>
  </g>
</svg>
