<svg id="Group_2081" data-name="Group 2081" xmlns="http://www.w3.org/2000/svg" width="26.354" height="40.313" viewBox="0 0 26.354 40.313">
  <g id="Group_44" data-name="Group 44" transform="translate(0 0)">
    <path id="Path_79" data-name="Path 79" d="M189.4,157.607a10.611,10.611,0,0,0-6.149-7.008c-6.831-3.184-11.4-1.328-14.036.79a15.787,15.787,0,0,0-4.841,7.307,14.9,14.9,0,0,0-.677,7.483.839.839,0,0,0,1.649-.308c0-.02-.008-.039-.012-.059-.709-3.168.64-9.663,4.933-13.116,3.243-2.609,7.487-2.808,12.274-.577a9,9,0,0,1,5.236,5.92c1.144,4.258-.574,9.548-2.219,13.235a48.545,48.545,0,0,1-3.966,7.17l-.064.092-.038.106c-1.291,3.6-2.924,6.157-4.855,7.6a5.718,5.718,0,0,1-4.87,1.122,6.9,6.9,0,0,1-3.812-2.611,5.7,5.7,0,0,1-1.233-4.025.878.878,0,0,0,0-.234.84.84,0,0,0-1.663.017c-.468,3.595,2.484,7.561,6.317,8.486a7.235,7.235,0,0,0,1.689.2,7.606,7.606,0,0,0,4.58-1.614c2.181-1.629,4-4.412,5.394-8.275a50.185,50.185,0,0,0,4.046-7.325,33.854,33.854,0,0,0,2.334-7.022,16.165,16.165,0,0,0-.014-7.36Zm0,0" transform="translate(-163.479 -148.89)" fill="#aaa"/>
  </g>
  <path id="Path_80" data-name="Path 80" d="M247.448,199.695a.288.288,0,0,0-.015-.03,8.92,8.92,0,0,0-5.466-4.968c-4.015-1.164-8.033,1.1-8.491,1.375l-.029.018a.84.84,0,1,0,.874,1.434c.037-.022,3.705-2.222,7.179-1.215a7.334,7.334,0,0,1,4.444,4.128.839.839,0,0,0,1.591-.372.821.821,0,0,0-.087-.372Zm0,0" transform="translate(-225.74 -189.593)" fill="#aaa"/>
  <path id="Path_81" data-name="Path 81" d="M228.221,277.606a4.57,4.57,0,0,0-3.06-2.325,7.1,7.1,0,0,0-4.954,1.325l-.023.017a.839.839,0,1,0,1,1.348,5.544,5.544,0,0,1,3.645-1.045,2.931,2.931,0,0,1,1.949,1.535c1.107,1.866.279,3.075-1.544,5.415a32.346,32.346,0,0,0-1.992,2.763,11.123,11.123,0,0,0-1.6,4.9,4.16,4.16,0,0,1-.221,1.12.625.625,0,0,1-.193.02,1.025,1.025,0,0,1-.777-.369c-1.1-1.188-1.3-4.783-1.161-6.769,0-.02,0-.039,0-.057a.839.839,0,0,0-1.677-.058,23.569,23.569,0,0,0,.032,3.108c.182,2.332.71,3.985,1.57,4.916a2.709,2.709,0,0,0,1.994.909h.03a1.755,1.755,0,0,0,1.681-.941,5.036,5.036,0,0,0,.389-1.672,9.5,9.5,0,0,1,1.362-4.221,30.426,30.426,0,0,1,1.892-2.62,12.975,12.975,0,0,0,2.126-3.334,4.435,4.435,0,0,0-.463-3.971Zm0,0" transform="translate(-211.895 -261.935)" fill="#aaa"/>
</svg>
