<svg xmlns="http://www.w3.org/2000/svg" width="32.354" height="48" viewBox="0 0 32.354 48">
  <path id="Path_13" data-name="Path 13" d="M199.65,268.782a.7.7,0,0,0-.7.7V276.1a.389.389,0,0,1-.388.388h-3.78V262.637a.7.7,0,0,0-1.406,0v13.847h-7.611l2.207-2.428a1.259,1.259,0,0,0,.3-1.011c0-.007,0-.014,0-.022l-2.1-12.419.566-.853a1.593,1.593,0,0,0,1.007.436,1.232,1.232,0,0,0,1.1-.681l2.217-4.444,5.051,1.956a4.872,4.872,0,0,1,2.836,4.429V266.2a.7.7,0,0,0,1.406,0v-4.756a6.275,6.275,0,0,0-3.711-5.731l-.014-.005-8.406-3.255v-1.972a6.589,6.589,0,0,0,2.493-4.334,3.044,3.044,0,0,0,1.788-.729,2.986,2.986,0,0,0,.312-4.212v-2.6a8.714,8.714,0,1,0-17.429,0v2.673a2.823,2.823,0,0,0-.725,1.882,2.979,2.979,0,0,0,1.037,2.262,3.04,3.04,0,0,0,1.787.729,6.518,6.518,0,0,0,2.636,4.438v1.868l-8.4,3.255-.013.005a6.274,6.274,0,0,0-3.711,5.73V276.1a1.8,1.8,0,0,0,1.794,1.794h6.7a.7.7,0,1,0,0-1.406h-1.513V262.637a.7.7,0,1,0-1.406,0v13.847h-3.78a.389.389,0,0,1-.388-.388V261.447a4.873,4.873,0,0,1,2.836-4.428l5.047-1.956,2.217,4.444a1.231,1.231,0,0,0,1.1.681,1.592,1.592,0,0,0,1.007-.436l.566.853-2.1,12.419c0,.007,0,.014,0,.022a1.261,1.261,0,0,0,.3,1.011l2.207,2.428h-2.812a.7.7,0,0,0,0,1.406h18.784a1.8,1.8,0,0,0,1.795-1.794v-6.611a.7.7,0,0,0-.7-.7Zm-9.907-14.229-2.067,4.143-2.486-1.766,2.553-3.152Zm-4.156,4.384-.536.807H183.3l-.536-.807,1.413-1Zm-4.059-6.254v-1.316a7.125,7.125,0,0,0,2.659.5,6.6,6.6,0,0,0,2.63-.548v1.366l-2.642,3.261Zm10.606-9.524a1.576,1.576,0,0,1-.547,1.2,1.642,1.642,0,0,1-.812.374V241.59a1.591,1.591,0,0,1,1.359,1.569Zm-14.707,1.57a1.589,1.589,0,0,1-1.359-1.57,1.671,1.671,0,0,1,1.359-1.534Zm.038-4.536a3.5,3.5,0,0,0-.672.151V238.6a7.308,7.308,0,1,1,14.616,0V240.3a3.155,3.155,0,0,0-.634-.122c0-.678.006-.547-2.213-2.934a1.251,1.251,0,0,0-1.6-.195,13.555,13.555,0,0,1-8.2,2.206,1.249,1.249,0,0,0-1.3.942Zm1.369,5.089v-4.618a15.027,15.027,0,0,0,8.788-2.37c1.018,1.093,1.569,1.666,1.747,1.884v5.1a5.268,5.268,0,0,1-10.535,0Zm1.839,13.413-2.067-4.143,2-.773,2.554,3.152-2.483,1.764Zm.807,14.479,2.035-12.025h1.319l2.035,12.025-2.695,2.964Zm0,0" transform="translate(-168 -229.89)" fill="#A6A7AB"/>
</svg>
