<svg xmlns="http://www.w3.org/2000/svg" width="51.248" height="48" viewBox="0 0 51.248 48">
  <path id="Path_14" data-name="Path 14" d="M155.5,282.5a.751.751,0,0,0-.751.751v5.016a.126.126,0,0,1-.126.127h-2.853V277.421a.751.751,0,1,0-1.5,0v10.968h-5.512l1.492-1.641a1.2,1.2,0,0,0,.291-.963c0-.007,0-.015,0-.022l-1.677-9.909.309-.464.08.057a1.175,1.175,0,0,0,1.732-.433l1.706-3.42,3.9,1.51a3.737,3.737,0,0,1,2.165,3.388v3.253a.751.751,0,0,0,1.5,0V276.49a5.236,5.236,0,0,0-3.1-4.778l-.015-.005-6.638-2.571v-1.367a5.479,5.479,0,0,0,1.983-3.4,2.62,2.62,0,0,0,1.394-.614,2.586,2.586,0,0,0,.315-3.594V258.13a7.184,7.184,0,0,0-11.855-5.463,2.583,2.583,0,0,0-.581-1.562V249.08a7.19,7.19,0,0,0-14.379,0v2.078a2.448,2.448,0,0,0-.58,1.5,7.156,7.156,0,0,0-2.832-1.483.751.751,0,0,0-.382,1.452,5.69,5.69,0,0,1,4.235,5.5v1.123c-.032-.007-.137-.025-.141-.025a.862.862,0,0,0-.179-.508c-.192-.276-.537-.62-1.647-1.813a1.186,1.186,0,0,0-1.521-.186,10.727,10.727,0,0,1-6.355,1.75,1.2,1.2,0,0,0-1.321.768l-.212.043V258.13a5.724,5.724,0,0,1,4.045-5.446.751.751,0,0,0-.433-1.438,7.25,7.25,0,0,0-3.666,2.557,7.125,7.125,0,0,0-1.448,4.327v2.079a2.446,2.446,0,0,0-.582,1.582,2.592,2.592,0,0,0,2.3,2.573,5.544,5.544,0,0,0,2.092,3.492v1.279l-6.631,2.571-.014.006a5.234,5.234,0,0,0-3.1,4.777v11.772a1.63,1.63,0,0,0,1.628,1.628h23.119a1.619,1.619,0,0,0,.877-.259,1.619,1.619,0,0,0,.877.259h23.119a1.629,1.629,0,0,0,1.628-1.628v-5.016a.751.751,0,0,0-.751-.751Zm-42.92-19.683a1.084,1.084,0,0,1-.721-1.022,1.108,1.108,0,0,1,.721-.977Zm34.7,8.234L145.8,274l-1.66-1.179,1.842-2.274Zm-4.219.728-1.941-2.4v-.72a6.069,6.069,0,0,0,1.951.319h0a5.545,5.545,0,0,0,1.928-.35v.756Zm.882,2.743-.276.416h-1.21l-.276-.416.882-.626Zm-13.318-11.794-1.941-2.4v-.72a6.077,6.077,0,0,0,1.951.319h0a5.538,5.538,0,0,0,1.928-.35v.756Zm.882,2.743-.276.415h-1.21l-.276-.415.882-.626Zm-6.793-10.227a2.675,2.675,0,0,0,.377.072,5.545,5.545,0,0,0,2.092,3.492v1.279l-1.532.594a2.56,2.56,0,0,0-.332-.523V258.13a7.167,7.167,0,0,0-.606-2.889Zm9.9-.795a4.049,4.049,0,0,1-8.1,0V250.93a12.293,12.293,0,0,0,6.847-1.861c.677.726,1.08,1.147,1.25,1.343v4.034Zm1.432.866a2.811,2.811,0,0,0,.375-.072,7.144,7.144,0,0,0-.608,2.889v2.079a2.553,2.553,0,0,0-.3.438l-1.452-.563v-1.367a5.484,5.484,0,0,0,1.982-3.4Zm-8.352,6.185,1.843,2.275-1.256.893,0,0-.4.283L126.4,262Zm4.659,1.48,1.2-1.481,1.291.5-1.474,2.953-.4-.284h0l-1.259-.895Zm.378,3.36.081.057a1.175,1.175,0,0,0,1.732-.433h0l1.267-2.539a2.635,2.635,0,0,0,1.714.944,5.456,5.456,0,0,0,2.095,3.49v1.279l-6.383,2.474-.814-4.808Zm7.4,4.211,1.843,2.275L140.314,274l-1.474-2.953Zm6.919-7.051a4.048,4.048,0,0,1-8.1,0v-3.516a12.3,12.3,0,0,0,6.847-1.861c.677.726,1.08,1.148,1.249,1.344V263.5Zm2.223-1.706a1.085,1.085,0,0,1-.721,1.022v-2.042a1.082,1.082,0,0,1,.721,1.02Zm-11.959-3.661a5.688,5.688,0,0,1,11.376,0v1.123c-.034-.007-.128-.023-.141-.025a.864.864,0,0,0-.179-.508c-.2-.283-.538-.621-1.647-1.813a1.187,1.187,0,0,0-1.521-.186,10.747,10.747,0,0,1-6.411,1.746,1.182,1.182,0,0,0-1.265.772l-.212.043Zm.139,2.684v2a1.082,1.082,0,0,1-.721-1.021,1.108,1.108,0,0,1,.721-.977Zm-.617-8.074a1.079,1.079,0,0,1-.375.82,1.116,1.116,0,0,1-.346.2V251.72a1.082,1.082,0,0,1,.721,1.02Zm-6.271-9.349a5.694,5.694,0,0,1,5.688,5.688V250.2l-.141-.025a.91.91,0,0,0-.212-.554c-.2-.272-.572-.646-1.615-1.767a1.187,1.187,0,0,0-1.521-.186,10.724,10.724,0,0,1-6.471,1.744,1.192,1.192,0,0,0-1.2.774l-.213.043V249.08a5.694,5.694,0,0,1,5.688-5.688Zm-5.549,8.372v2a1.084,1.084,0,0,1-.721-1.022,1.109,1.109,0,0,1,.721-.977Zm-1.338,9.007a1.084,1.084,0,0,1,0,2.042Zm-.07,3.6a2.634,2.634,0,0,0,1.784-1.036l1.313,2.631h0a1.175,1.175,0,0,0,1.731.433l.081-.057.309.465-.814,4.807-6.386-2.474v-1.367a5.487,5.487,0,0,0,1.982-3.4Zm-5.421,7.41-1.941-2.4v-.72a6.06,6.06,0,0,0,1.951.319h0a5.549,5.549,0,0,0,1.928-.35v.756Zm.881,2.743-.276.416h-1.21l-.276-.416.882-.626Zm2.046-3.971,1.291.5L120.931,274l-.4-.284h0l-1.259-.895Zm-7.034-7.05v-3.516a12.306,12.306,0,0,0,6.847-1.861c.67.719,1.079,1.147,1.249,1.344V263.5a4.048,4.048,0,0,1-8.1,0Zm1.176,7.051,1.843,2.275-1.256.893h0l-.4.284-1.474-2.953Zm-4.273,17.84V277.421a.751.751,0,1,0-1.5,0v10.968h-2.852a.127.127,0,0,1-.127-.126V276.49a3.736,3.736,0,0,1,2.164-3.387l3.9-1.511,1.707,3.42a1.174,1.174,0,0,0,1.732.433l.081-.057.309.464-1.677,9.909c0,.008,0,.015,0,.022a1.2,1.2,0,0,0,.291.963l1.492,1.641Zm5.236-2.532,1.594-9.421h.747l1.594,9.421-1.967,2.165Zm13.655,2.405a.127.127,0,0,1-.127.127h-2.852V277.421a.751.751,0,1,0-1.5,0v10.968h-5.512l1.492-1.641a1.2,1.2,0,0,0,.291-.963c0-.007,0-.015,0-.022l-1.677-9.909.309-.464.08.057a1.175,1.175,0,0,0,1.732-.433l1.706-3.42,3.9,1.51a3.729,3.729,0,0,1,2.165,3.388Zm.751-14.5A5.358,5.358,0,0,0,129.4,272.4l.849-5.016H131l.849,5.018a5.351,5.351,0,0,0-1.221,1.358Zm5.231,14.627V277.421a.751.751,0,1,0-1.5,0v10.968H131.5a.127.127,0,0,1-.127-.126V276.49a3.589,3.589,0,0,1,.876-2.405,4.035,4.035,0,0,1,1.287-.982l3.9-1.511,1.706,3.42h0a1.174,1.174,0,0,0,1.731.433l.081-.057.309.464-1.677,9.909c0,.008,0,.015,0,.022a1.2,1.2,0,0,0,.291.963l1.492,1.641Zm5.236-2.532,1.594-9.421h.747l1.594,9.421-1.968,2.165Zm0,0" transform="translate(-105 -241.89)" fill="#a6a7ab"/>
</svg>
